<svg width="current" height="current" viewBox="0 0 44 44" fill="none" xmlns="http://www.w3.org/2000/svg">
<g clip-path="url(#clip0_3374_9130)">
<g clip-path="url(#clip1_3374_9130)">
<path d="M43.3393 27.3219C40.401 39.1077 28.4639 46.2804 16.6767 43.3414C4.89438 40.4031 -2.27824 28.4652 0.661309 16.6803C3.59828 4.89322 15.5354 -2.27994 27.319 0.658315C39.1054 3.59657 46.2775 15.5357 43.339 27.3221L43.3392 27.3219H43.3393Z" fill="#F7931A"/>
<path d="M31.701 18.8655C32.1389 15.9378 29.9099 14.364 26.862 13.3142L27.8508 9.3483L25.4366 8.74676L24.4741 12.6082C23.8394 12.4499 23.1877 12.3008 22.5399 12.1529L23.5094 8.26597L21.0968 7.66443L20.1075 11.629C19.5823 11.5094 19.0664 11.3912 18.566 11.2667L18.5687 11.2542L15.2396 10.4229L14.5974 13.0013C14.5974 13.0013 16.3885 13.4119 16.3508 13.4372C17.3283 13.6812 17.5051 14.3283 17.4758 14.8412L16.3495 19.3593C16.4168 19.3764 16.5041 19.4011 16.6004 19.4398C16.5199 19.4198 16.4342 19.398 16.3453 19.3767L14.7666 25.7058C14.6471 26.0028 14.3438 26.4486 13.6604 26.2793C13.6846 26.3144 11.9057 25.8414 11.9057 25.8414L10.7072 28.6048L13.8488 29.388C14.4332 29.5346 15.0059 29.6879 15.5699 29.8321L14.571 33.8435L16.9823 34.445L17.9716 30.4763C18.6304 30.6551 19.2697 30.82 19.8955 30.9755L18.9095 34.9256L21.3238 35.5271L22.3226 31.5233C26.4393 32.3024 29.5346 31.9883 30.8375 28.2648C31.8874 25.267 30.7853 23.5378 28.6195 22.4102C30.1969 22.0465 31.3851 21.009 31.7019 18.8658L31.7011 18.8653L31.701 18.8655ZM26.1853 26.6C25.4392 29.5978 20.3918 27.9773 18.7553 27.5709L20.081 22.2566C21.7173 22.6651 26.965 23.4735 26.1854 26.6H26.1853ZM26.9319 18.822C26.2513 21.5489 22.0503 20.1635 20.6875 19.8238L21.8894 15.0041C23.2522 15.3438 27.6409 15.9778 26.9321 18.822H26.9319Z" fill="white"/>
</g>
</g>
<defs>
<clipPath id="clip0_3374_9130">
<rect width="44" height="44" fill="white"/>
</clipPath>
<clipPath id="clip1_3374_9130">
<rect width="44" height="44" fill="white"/>
</clipPath>
</defs>
</svg>
