<svg width="current" height="current" viewBox="0 0 44 44" fill="none" xmlns="http://www.w3.org/2000/svg">
<rect width="44" height="44" rx="22" fill="white"/>
<g clip-path="url(#clip0_3374_9143)">
<path d="M13.4169 21.8295C13.3358 23.238 14.4201 24.4439 15.8286 24.5249C15.8793 24.5249 15.93 24.5249 15.9806 24.5249C17.3993 24.5249 18.5444 23.3799 18.5342 21.9612C18.5342 20.5425 17.3892 19.3975 15.9705 19.4076C14.6126 19.4076 13.4878 20.4716 13.4169 21.8295Z" fill="#0033AD"/>
<path d="M3.8714 21.1709C3.4154 21.1405 3.0202 21.4952 2.99993 21.9512C2.97967 22.4072 3.3242 22.8024 3.7802 22.8226C4.2362 22.853 4.62127 22.4984 4.65167 22.0424C4.68207 21.5864 4.3274 21.2013 3.8714 21.1709Z" fill="#0033AD"/>
<path d="M13.2548 6.97388C13.6602 6.77122 13.8223 6.26455 13.6196 5.85922C13.417 5.45388 12.9103 5.29175 12.505 5.49442C12.0996 5.69708 11.9375 6.19362 12.1402 6.59895C12.3428 7.01442 12.8394 7.18668 13.2548 6.97388C13.2447 6.97388 13.2548 6.97388 13.2548 6.97388Z" fill="#0033AD"/>
<path d="M15.8491 11.5036C16.4774 11.1895 16.7307 10.4194 16.4166 9.79109C16.1024 9.16283 15.3323 8.90949 14.704 9.22363C14.0758 9.53776 13.8224 10.3079 14.1366 10.9362C14.4507 11.5644 15.2208 11.8178 15.8491 11.5036Z" fill="#0033AD"/>
<path d="M7.11421 14.6146C7.60061 14.9288 8.24915 14.797 8.57341 14.3106C8.88755 13.8242 8.75581 13.1757 8.26941 12.8514C7.78301 12.5373 7.13448 12.669 6.81021 13.1554C6.48595 13.6418 6.62781 14.3005 7.11421 14.6146Z" fill="#0033AD"/>
<path d="M8.6644 20.7149C7.95507 20.6744 7.3572 21.2115 7.31667 21.9208C7.27613 22.6301 7.8132 23.228 8.52253 23.2685C9.23187 23.3091 9.82973 22.772 9.87027 22.0627C9.9108 21.3635 9.37373 20.7555 8.6644 20.7149Z" fill="#0033AD"/>
<path d="M7.25609 29.2977C6.73929 29.5612 6.52649 30.1894 6.78996 30.7164C7.05342 31.2332 7.68169 31.446 8.20862 31.1825C8.72542 30.919 8.93822 30.2908 8.67476 29.7638C8.41129 29.247 7.77289 29.0342 7.25609 29.2977Z" fill="#0033AD"/>
<path d="M12.2214 18.07C12.9206 18.526 13.8528 18.3334 14.2987 17.6342C14.7547 16.935 14.5622 16.0028 13.863 15.5569C13.1638 15.1009 12.2315 15.2934 11.7856 15.9926C11.3296 16.6817 11.5222 17.614 12.2214 18.07Z" fill="#0033AD"/>
<path d="M27.9787 11.4022C28.5664 11.7872 29.367 11.6251 29.752 11.0374C30.1371 10.4496 29.975 9.64911 29.3872 9.26404C28.7995 8.87897 27.999 9.04111 27.6139 9.62884C27.2187 10.2267 27.3808 11.0171 27.9787 11.4022Z" fill="#0033AD"/>
<path d="M30.5931 6.89284C30.9781 7.14617 31.4848 7.0347 31.7381 6.64964C31.9915 6.26457 31.88 5.7579 31.4949 5.50457C31.1099 5.25124 30.6032 5.3627 30.3499 5.73764C30.1067 6.1227 30.2181 6.6395 30.5931 6.89284Z" fill="#0033AD"/>
<path d="M28.1712 19.3874C26.7626 19.3064 25.5466 20.3906 25.4757 21.7992C25.3946 23.2077 26.4789 24.4237 27.8874 24.4946C27.9381 24.4946 27.9888 24.4946 28.0293 24.4946C29.4378 24.4946 30.5829 23.3496 30.5829 21.9309C30.593 20.5832 29.529 19.4584 28.1712 19.3874Z" fill="#0033AD"/>
<path d="M16.6901 17.8877C17.1258 18.749 18.0074 19.2962 18.9802 19.2962C20.3887 19.2962 21.5338 18.1512 21.5338 16.7325C21.5338 16.3373 21.4426 15.9421 21.2602 15.5773C20.6218 14.3106 19.0815 13.804 17.825 14.4424C16.5583 15.0909 16.0517 16.6312 16.6901 17.8877Z" fill="#0033AD"/>
<path d="M36.7439 14.6147C37.2607 14.3512 37.4633 13.7128 37.1999 13.196C36.9364 12.6792 36.298 12.4765 35.7812 12.74C35.2644 13.0035 35.0617 13.6317 35.3151 14.1485C35.5887 14.6653 36.2169 14.8781 36.7439 14.6147Z" fill="#0033AD"/>
<path d="M30.2587 15.4251C29.519 15.8 29.215 16.7019 29.5899 17.4416C29.9648 18.1813 30.8667 18.4853 31.6064 18.1104C32.3462 17.7355 32.6502 16.8336 32.2752 16.0939C31.9003 15.3541 30.9984 15.0603 30.2587 15.4251Z" fill="#0033AD"/>
<path d="M21.8986 6.50779C22.4762 6.53819 22.9728 6.09232 23.0133 5.51472C23.0538 4.93712 22.5978 4.44059 22.0202 4.40006C21.4426 4.36966 20.9461 4.80539 20.9055 5.38299C20.8751 5.97072 21.321 6.46726 21.8986 6.50779Z" fill="#0033AD"/>
<path d="M21.8886 13.125C22.7195 13.1756 23.4288 12.5372 23.4694 11.7063C23.52 10.8754 22.8816 10.166 22.0507 10.1255C21.2198 10.0748 20.5104 10.7132 20.4699 11.5442C20.4294 12.3751 21.0576 13.0844 21.8886 13.125Z" fill="#0033AD"/>
<path d="M13.7412 28.4869C14.4809 28.112 14.7849 27.2101 14.41 26.4704C14.0351 25.7306 13.1332 25.4266 12.3935 25.8016C11.6537 26.1765 11.3497 27.0784 11.7247 27.8181C12.0996 28.5578 13.0015 28.8618 13.7412 28.4869Z" fill="#0033AD"/>
<path d="M22.8614 15.324C22.0912 16.5096 22.4155 18.0904 23.6011 18.8605C24.7867 19.6306 26.3675 19.3064 27.1376 18.1208C27.9078 16.9352 27.5835 15.3544 26.3979 14.5842C25.9824 14.3106 25.496 14.1688 24.9995 14.1688C24.1382 14.1688 23.3376 14.6045 22.8614 15.324Z" fill="#0033AD"/>
<path d="M27.3099 26.0248C26.6715 24.7581 25.1312 24.2514 23.8747 24.8898C22.608 25.5282 22.1014 27.0685 22.7398 28.325C23.3782 29.5917 24.9184 30.0984 26.175 29.46C27.4315 28.8317 27.9483 27.3117 27.32 26.045C27.32 26.0349 27.32 26.0349 27.3099 26.0248Z" fill="#0033AD"/>
<path d="M31.7787 25.8423C31.0795 25.3863 30.1472 25.5788 29.7013 26.278C29.2453 26.9772 29.4379 27.9095 30.1371 28.3554C30.8363 28.8114 31.7685 28.6188 32.2144 27.9196C32.6704 27.2306 32.4779 26.2983 31.7787 25.8423Z" fill="#0033AD"/>
<path d="M36.6833 22.0017C36.7238 21.2924 36.1867 20.6945 35.4774 20.654C34.7681 20.6135 34.1702 21.1505 34.1297 21.8599C34.0891 22.5692 34.6262 23.1671 35.3355 23.2076C36.0347 23.2481 36.6427 22.7009 36.6833 22.0017Z" fill="#0033AD"/>
<path d="M40.2198 21.0897C39.7638 21.0593 39.3686 21.414 39.3483 21.87C39.328 22.326 39.6726 22.7212 40.1286 22.7414C40.5846 22.7718 40.9696 22.4172 41 21.9612C41.0203 21.5052 40.6758 21.1201 40.2198 21.0897Z" fill="#0033AD"/>
<path d="M36.8858 29.2978C36.3994 28.9837 35.7509 29.1154 35.4266 29.6018C35.1125 30.0882 35.2442 30.7368 35.7306 31.061C36.217 31.3752 36.8656 31.2434 37.1898 30.757C37.5141 30.2706 37.3722 29.612 36.8858 29.2978Z" fill="#0033AD"/>
<path d="M13.3968 37.0194C13.0118 36.7661 12.5051 36.8775 12.2518 37.2525C11.9984 37.6375 12.1099 38.1442 12.4848 38.3975C12.8699 38.6509 13.3766 38.5394 13.6299 38.1645C13.8934 37.7895 13.7819 37.2727 13.3968 37.0194Z" fill="#0033AD"/>
<path d="M30.7451 36.9384C30.3397 37.141 30.1776 37.6477 30.3803 38.053C30.5829 38.4584 31.0896 38.6205 31.4949 38.4178C31.9003 38.2152 32.0624 37.7186 31.8597 37.3133C31.6571 36.8978 31.1605 36.7256 30.7451 36.9384C30.7552 36.9384 30.7451 36.9384 30.7451 36.9384Z" fill="#0033AD"/>
<path d="M21.1385 28.5885C21.9086 27.4029 21.5843 25.8221 20.3987 25.0419C19.2131 24.2717 17.6323 24.596 16.8521 25.7816C16.0718 26.9672 16.4062 28.548 17.5918 29.3283C18.0073 29.6019 18.4937 29.7437 18.9902 29.7437C19.8617 29.7539 20.6622 29.3181 21.1385 28.5885Z" fill="#0033AD"/>
<path d="M16.0213 32.5099C15.4336 32.1248 14.6331 32.287 14.248 32.8747C13.8629 33.4624 14.0251 34.263 14.6128 34.648C15.2005 35.0331 16.0011 34.871 16.3861 34.2832C16.7813 33.6955 16.6192 32.895 16.0213 32.5099Z" fill="#0033AD"/>
<path d="M21.9899 37.4045C21.4123 37.3741 20.9158 37.8199 20.8753 38.3975C20.8347 38.9751 21.2907 39.4717 21.8683 39.5122C22.4459 39.5426 22.9425 39.1069 22.983 38.5293C23.0134 37.9415 22.5675 37.445 21.9899 37.4045Z" fill="#0033AD"/>
<path d="M22.0001 30.7873C21.1691 30.7366 20.4598 31.375 20.4193 32.206C20.3686 33.0369 21.007 33.7462 21.8379 33.7868C22.6689 33.8273 23.3782 33.199 23.4187 32.3681C23.4694 31.5473 22.831 30.8278 22.0001 30.7873Z" fill="#0033AD"/>
<path d="M28.1509 32.4087C27.5226 32.7329 27.2693 33.5031 27.5935 34.1313C27.9178 34.7596 28.6879 35.0129 29.3162 34.6887C29.9445 34.3745 30.1978 33.6044 29.8837 32.9761C29.5594 32.3479 28.7893 32.0844 28.1509 32.4087Z" fill="#0033AD"/>
</g>
<defs>
<clipPath id="clip0_3374_9143">
<rect width="38" height="35.112" fill="white" transform="translate(3 4.40002)"/>
</clipPath>
</defs>
</svg>
