<svg width="current" height="current" viewBox="0 0 44 44" fill="none" xmlns="http://www.w3.org/2000/svg">
<g clip-path="url(#clip0_3374_9116)">
<g clip-path="url(#clip1_3374_9116)">
<g clip-path="url(#clip2_3374_9116)">
<path d="M22 0C34.1497 0 44 9.85028 44 22C44 34.1497 34.1493 44 22 44C9.85072 44 0 34.1524 0 22C0 9.84764 9.84896 0 22 0Z" fill="#53AE94"/>
<path d="M24.7152 19.0687V15.796H32.1992V10.8094H11.8202V15.796H19.305V19.066C13.222 19.3454 8.64819 20.5502 8.64819 21.9934C8.64819 23.4366 13.2242 24.6413 19.305 24.9224V35.4054H24.717V24.9216C30.789 24.6413 35.3536 23.4374 35.3536 21.9956C35.3536 20.5537 30.789 19.3498 24.717 19.0696M24.717 24.0336V24.031C24.5643 24.0407 23.7798 24.0878 22.033 24.0878C20.6364 24.0878 19.6539 24.0482 19.3076 24.0301V24.0345C13.9335 23.7965 9.92199 22.8606 9.92199 21.7408C9.92199 20.621 13.9339 19.6864 19.3076 19.448V23.1022C19.6596 23.1264 20.6664 23.1858 22.0559 23.1858C23.7248 23.1858 24.5639 23.1162 24.7179 23.1022V19.448C30.0815 19.6869 34.0837 20.6236 34.0837 21.7395C34.0837 22.8553 30.0797 23.7925 24.7179 24.0314" fill="white"/>
</g>
</g>
</g>
<defs>
<clipPath id="clip0_3374_9116">
<rect width="44" height="44" fill="white"/>
</clipPath>
<clipPath id="clip1_3374_9116">
<rect width="44" height="44" fill="white"/>
</clipPath>
<clipPath id="clip2_3374_9116">
<rect width="44" height="44" fill="white"/>
</clipPath>
</defs>
</svg>
