<svg width="current" height="current" viewBox="0 0 44 44" fill="none" xmlns="http://www.w3.org/2000/svg">
<g clip-path="url(#clip0_3374_9087)">
<g clip-path="url(#clip1_3374_9087)">
<path d="M22 44C34.1917 44 44 34.1917 44 22C44 9.80826 34.1917 0 22 0C9.80826 0 0 9.80826 0 22C0 34.1917 9.80826 44 22 44Z" fill="#2775CA"/>
<path d="M28.05 25.4832C28.05 22.275 26.125 21.175 22.275 20.7167C19.525 20.35 18.975 19.6167 18.975 18.3332C18.975 17.0497 19.8918 16.225 21.725 16.225C23.375 16.225 24.2918 16.775 24.75 18.15C24.8418 18.425 25.1168 18.6082 25.3918 18.6082H26.8583C27.225 18.6082 27.5 18.3332 27.5 17.9667V17.875C27.1333 15.8582 25.4833 14.3 23.375 14.1167V11.9167C23.375 11.55 23.1 11.275 22.6418 11.1832H21.2668C20.9 11.1832 20.625 11.4582 20.5333 11.9167V14.025C17.7833 14.3917 16.0418 16.225 16.0418 18.5167C16.0418 21.5417 17.875 22.7332 21.725 23.1917C24.2918 23.65 25.1168 24.2 25.1168 25.6667C25.1168 27.1334 23.8333 28.1417 22.0918 28.1417C19.7083 28.1417 18.8833 27.1332 18.6083 25.7582C18.5168 25.3917 18.2418 25.2082 17.9668 25.2082H16.4083C16.0418 25.2082 15.7668 25.4832 15.7668 25.85V25.9417C16.1333 28.2332 17.6 29.8832 20.625 30.3417V32.5417C20.625 32.9082 20.9 33.1832 21.3583 33.275H22.7333C23.1 33.275 23.375 33 23.4668 32.5417V30.3417C26.2168 29.8832 28.05 27.9582 28.05 25.4832Z" fill="white"/>
<path d="M17.325 35.1083C10.175 32.5417 6.50825 24.5667 9.16673 17.5083C10.5417 13.6583 13.5667 10.725 17.325 9.35001C17.6917 9.16675 17.875 8.89175 17.875 8.43327V7.15001C17.875 6.78327 17.6917 6.50827 17.325 6.41675C17.2332 6.41675 17.05 6.41675 16.9582 6.50827C8.24999 9.25827 3.48325 18.5167 6.23325 27.225C7.88325 32.3583 11.825 36.3 16.9582 37.95C17.325 38.1333 17.6917 37.95 17.7832 37.5833C17.875 37.4917 17.875 37.4 17.875 37.2167V35.9333C17.875 35.6583 17.6 35.2917 17.325 35.1083ZM27.0417 6.50827C26.675 6.32501 26.3082 6.50827 26.2167 6.87501C26.125 6.96675 26.125 7.05827 26.125 7.24175V8.52501C26.125 8.89175 26.4 9.25827 26.675 9.44175C33.825 12.0083 37.4917 19.9833 34.8332 27.0417C33.4582 30.8917 30.4332 33.825 26.675 35.2C26.3082 35.3833 26.125 35.6583 26.125 36.1167V37.4C26.125 37.7667 26.3082 38.0417 26.675 38.1333C26.7667 38.1333 26.95 38.1333 27.0417 38.0417C35.75 35.2917 40.5167 26.0333 37.7667 17.325C36.1167 12.1 32.0832 8.15827 27.0417 6.50827Z" fill="white"/>
</g>
</g>
<defs>
<clipPath id="clip0_3374_9087">
<rect width="44" height="44" fill="white"/>
</clipPath>
<clipPath id="clip1_3374_9087">
<rect width="44" height="44" fill="white"/>
</clipPath>
</defs>
</svg>
