<svg width="current" height="current" viewBox="0 0 44 44" fill="none" xmlns="http://www.w3.org/2000/svg">
<rect width="44" height="44" rx="22" fill="#E6007A"/>
<g clip-path="url(#clip0_3374_9177)">
<path d="M22.0137 12.9215C25.3 12.9215 27.9641 11.3721 27.9641 9.46075C27.9641 7.54943 25.3 6 22.0137 6C18.7274 6 16.0633 7.54943 16.0633 9.46075C16.0633 11.3721 18.7274 12.9215 22.0137 12.9215Z" fill="white"/>
<path d="M22.0137 38.9977C25.3 38.9977 27.9641 37.4482 27.9641 35.5369C27.9641 33.6256 25.3 32.0762 22.0137 32.0762C18.7274 32.0762 16.0633 33.6256 16.0633 35.5369C16.0633 37.4482 18.7274 38.9977 22.0137 38.9977Z" fill="white"/>
<path d="M13.7214 17.712C15.3645 14.866 15.3539 11.7837 13.6976 10.8274C12.0412 9.87106 9.36646 11.4029 7.7233 14.2489C6.08013 17.0949 6.09079 20.1772 7.74712 21.1335C9.40344 22.0898 12.0782 20.558 13.7214 17.712Z" fill="white"/>
<path d="M36.3015 30.7485C37.9447 27.9026 37.935 24.8207 36.2798 23.8651C34.6246 22.9094 31.9507 24.4418 30.3075 27.2878C28.6644 30.1337 28.6741 33.2156 30.3293 34.1712C31.9845 35.1269 34.6584 33.5945 36.3015 30.7485Z" fill="white"/>
<path d="M13.6984 34.1704C15.3547 33.2141 15.3654 30.1318 13.7222 27.2858C12.0791 24.4398 9.40429 22.908 7.74797 23.8643C6.09165 24.8206 6.08098 27.9029 7.72415 30.7489C9.36732 33.5949 12.0421 35.1267 13.6984 34.1704Z" fill="white"/>
<path d="M36.2812 21.1343C37.9364 20.1787 37.9461 17.0968 36.303 14.2509C34.6598 11.4049 31.9859 9.8725 30.3307 10.8282C28.6755 11.7838 28.6658 14.8656 30.3089 17.7116C31.9521 20.5576 34.626 22.09 36.2812 21.1343Z" fill="white"/>
</g>
<defs>
<clipPath id="clip0_3374_9177">
<rect width="31.0298" height="33" fill="white" transform="translate(6.5 6)"/>
</clipPath>
</defs>
</svg>
