<svg width="current" height="current" viewBox="0 0 44 44" fill="none" xmlns="http://www.w3.org/2000/svg">
<circle cx="22" cy="22.0006" r="21.5937" fill="white" stroke="#DEE2E9" stroke-width="0.812565"/>
<path d="M33.7773 10L23.6651 17.5022L25.5431 13.0761L33.7773 10Z" fill="#E17726" stroke="#E17726" stroke-width="0.712817" stroke-linecap="round" stroke-linejoin="round"/>
<path d="M10.4566 10L20.4769 17.5732L18.6908 13.0761L10.4566 10Z" fill="#E27625" stroke="#E27625" stroke-width="0.712817" stroke-linecap="round" stroke-linejoin="round"/>
<path d="M30.1421 27.3906L27.452 31.5127L33.2082 33.0958L34.8532 27.4816L30.1421 27.3906Z" fill="#E27625" stroke="#E27625" stroke-width="0.712817" stroke-linecap="round" stroke-linejoin="round"/>
<path d="M9.39056 27.4816L11.0256 33.0958L16.7818 31.5127L14.1017 27.3906L9.39056 27.4816Z" fill="#E27625" stroke="#E27625" stroke-width="0.712817" stroke-linecap="round" stroke-linejoin="round"/>
<path d="M16.4669 20.4271L14.8628 22.8541L20.569 23.1082L20.376 16.965L16.4669 20.4271Z" fill="#E27625" stroke="#E27625" stroke-width="0.712817" stroke-linecap="round" stroke-linejoin="round"/>
<path d="M27.7672 20.4257L23.7971 16.8926L23.6651 23.1067L29.3712 22.8527L27.7672 20.4257Z" fill="#E27625" stroke="#E27625" stroke-width="0.712817" stroke-linecap="round" stroke-linejoin="round"/>
<path d="M16.7818 31.5138L20.2239 29.8378L17.2588 27.5237L16.7818 31.5138Z" fill="#E27625" stroke="#E27625" stroke-width="0.712817" stroke-linecap="round" stroke-linejoin="round"/>
<path d="M24.0101 29.8378L27.4522 31.5138L26.9752 27.5237L24.0101 29.8378Z" fill="#E27625" stroke="#E27625" stroke-width="0.712817" stroke-linecap="round" stroke-linejoin="round"/>
<path d="M27.4522 31.513L24.0101 29.8369L24.2841 32.081L24.2541 33.025L27.4522 31.513Z" fill="#D5BFB2" stroke="#D5BFB2" stroke-width="0.712817" stroke-linecap="round" stroke-linejoin="round"/>
<path d="M16.7818 31.513L19.9799 33.025L19.9599 32.081L20.2239 29.8369L16.7818 31.513Z" fill="#D5BFB2" stroke="#D5BFB2" stroke-width="0.712817" stroke-linecap="round" stroke-linejoin="round"/>
<path d="M20.041 26.0398L17.1779 25.1977L19.198 24.2737L20.041 26.0398Z" fill="#233447" stroke="#233447" stroke-width="0.712817" stroke-linecap="round" stroke-linejoin="round"/>
<path d="M24.1929 26.0398L25.0359 24.2737L27.066 25.1977L24.1929 26.0398Z" fill="#233447" stroke="#233447" stroke-width="0.712817" stroke-linecap="round" stroke-linejoin="round"/>
<path d="M16.7819 31.5127L17.2789 27.3906L14.1018 27.4816L16.7819 31.5127Z" fill="#CC6228" stroke="#CC6228" stroke-width="0.712817" stroke-linecap="round" stroke-linejoin="round"/>
<path d="M26.955 27.3906L27.452 31.5127L30.1421 27.4816L26.955 27.3906Z" fill="#CC6228" stroke="#CC6228" stroke-width="0.712817" stroke-linecap="round" stroke-linejoin="round"/>
<path d="M29.3712 22.8534L23.6651 23.1074L24.1931 26.0405L25.0361 24.2744L27.0662 25.1985L29.3712 22.8534Z" fill="#CC6228" stroke="#CC6228" stroke-width="0.712817" stroke-linecap="round" stroke-linejoin="round"/>
<path d="M17.1779 25.1985L19.1979 24.2744L20.041 26.0405L20.569 23.1074L14.8628 22.8534L17.1779 25.1985Z" fill="#CC6228" stroke="#CC6228" stroke-width="0.712817" stroke-linecap="round" stroke-linejoin="round"/>
<path d="M14.8628 22.8534L17.2589 27.5235L17.1779 25.1985L14.8628 22.8534Z" fill="#E27525" stroke="#E27525" stroke-width="0.712817" stroke-linecap="round" stroke-linejoin="round"/>
<path d="M27.0661 25.1985L26.9751 27.5235L29.3712 22.8534L27.0661 25.1985Z" fill="#E27525" stroke="#E27525" stroke-width="0.712817" stroke-linecap="round" stroke-linejoin="round"/>
<path d="M20.5688 23.1078L20.0408 26.0409L20.7108 29.503L20.8528 24.9449L20.5688 23.1078Z" fill="#E27525" stroke="#E27525" stroke-width="0.712817" stroke-linecap="round" stroke-linejoin="round"/>
<path d="M23.665 23.1078L23.391 24.9349L23.523 29.503L24.193 26.0409L23.665 23.1078Z" fill="#E27525" stroke="#E27525" stroke-width="0.712817" stroke-linecap="round" stroke-linejoin="round"/>
<path d="M24.193 26.0407L23.523 29.5028L24.01 29.8378L26.9751 27.5238L27.0661 25.1987L24.193 26.0407Z" fill="#F5841F" stroke="#F5841F" stroke-width="0.712817" stroke-linecap="round" stroke-linejoin="round"/>
<path d="M17.1779 25.1987L17.2589 27.5238L20.224 29.8378L20.711 29.5028L20.041 26.0407L17.1779 25.1987Z" fill="#F5841F" stroke="#F5841F" stroke-width="0.712817" stroke-linecap="round" stroke-linejoin="round"/>
<path d="M24.254 33.0254L24.284 32.0814L24.031 31.8584H20.2029L19.9599 32.0814L19.9799 33.0254L16.7818 31.5134L17.8989 32.4264L20.1729 34.0004H24.061L26.3351 32.4264L27.4521 31.5134L24.254 33.0254Z" fill="#C0AC9D" stroke="#C0AC9D" stroke-width="0.712817" stroke-linecap="round" stroke-linejoin="round"/>
<path d="M24.0101 29.8384L23.5231 29.5034H20.711L20.224 29.8384L19.96 32.0824L20.203 31.8594H24.0311L24.2841 32.0824L24.0101 29.8384Z" fill="#161616" stroke="#161616" stroke-width="0.712817" stroke-linecap="round" stroke-linejoin="round"/>
<path d="M34.2034 17.9902L35.0564 13.8481L33.7774 10L24.0101 17.2492L27.7672 20.4263L33.0764 21.9803L34.2444 20.6093L33.7364 20.2443L34.5484 19.5022L33.9294 19.0152L34.7414 18.3962L34.2034 17.9902Z" fill="#763E1A" stroke="#763E1A" stroke-width="0.712817" stroke-linecap="round" stroke-linejoin="round"/>
<path d="M9.17761 13.8481L10.0406 17.9902L9.49262 18.3962L10.3046 19.0152L9.68563 19.5022L10.4976 20.2443L9.98963 20.6093L11.1577 21.9803L16.4668 20.4263L20.2239 17.2492L10.4566 10L9.17761 13.8481Z" fill="#763E1A" stroke="#763E1A" stroke-width="0.712817" stroke-linecap="round" stroke-linejoin="round"/>
<path d="M33.0763 21.9796L27.7671 20.4256L29.3712 22.8527L26.9751 27.5228L30.1422 27.4818H34.8533L33.0763 21.9796Z" fill="#F5841F" stroke="#F5841F" stroke-width="0.712817" stroke-linecap="round" stroke-linejoin="round"/>
<path d="M16.4667 20.4256L11.1576 21.9796L9.39056 27.4818H14.1017L17.2588 27.5228L14.8627 22.8527L16.4667 20.4256Z" fill="#F5841F" stroke="#F5841F" stroke-width="0.712817" stroke-linecap="round" stroke-linejoin="round"/>
<path d="M23.665 23.1077L24.01 17.2496L25.543 13.0764H18.6909L20.2239 17.2496L20.5689 23.1077L20.7009 24.9548L20.7109 29.5029H23.523L23.533 24.9548L23.665 23.1077Z" fill="#F5841F" stroke="#F5841F" stroke-width="0.712817" stroke-linecap="round" stroke-linejoin="round"/>
</svg>
