<svg width="current" height="current" viewBox="0 0 44 44" fill="none" xmlns="http://www.w3.org/2000/svg">
<rect width="44" height="44" rx="22" fill="black"/>
<g clip-path="url(#clip0_3374_9082)">
<path d="M12.5596 27.791C12.729 27.6216 12.9619 27.5228 13.2089 27.5228H35.6112C36.0206 27.5228 36.2253 28.0169 35.9359 28.3063L31.5105 32.7317C31.3411 32.9011 31.1082 32.9999 30.8612 32.9999H8.45885C8.04949 32.9999 7.8448 32.5058 8.13418 32.2164L12.5596 27.791Z" fill="url(#paint0_linear_3374_9082)"/>
<path d="M12.5591 11.2682C12.7355 11.0988 12.9684 11 13.2084 11H35.6107C36.0201 11 36.2248 11.4941 35.9354 11.7834L31.51 16.2089C31.3406 16.3782 31.1077 16.4771 30.8606 16.4771H8.45834C8.04897 16.4771 7.84428 15.983 8.13366 15.6936L12.5591 11.2682Z" fill="url(#paint1_linear_3374_9082)"/>
<path d="M31.5105 19.4766C31.3411 19.3072 31.1082 19.2084 30.8612 19.2084H8.45885C8.04949 19.2084 7.8448 19.7024 8.13418 19.9918L12.5596 24.4172C12.729 24.5866 12.9619 24.6854 13.2089 24.6854H35.6112C36.0206 24.6854 36.2253 24.1914 35.9359 23.902L31.5105 19.4766Z" fill="url(#paint2_linear_3374_9082)"/>
</g>
<defs>
<linearGradient id="paint0_linear_3374_9082" x1="33.4712" y1="8.35627" x2="17.967" y2="38.053" gradientUnits="userSpaceOnUse">
<stop stop-color="#00FFA3"/>
<stop offset="1" stop-color="#DC1FFF"/>
</linearGradient>
<linearGradient id="paint1_linear_3374_9082" x1="26.6914" y1="4.81703" x2="11.1872" y2="34.5138" gradientUnits="userSpaceOnUse">
<stop stop-color="#00FFA3"/>
<stop offset="1" stop-color="#DC1FFF"/>
</linearGradient>
<linearGradient id="paint2_linear_3374_9082" x1="30.06" y1="6.57528" x2="14.5558" y2="36.272" gradientUnits="userSpaceOnUse">
<stop stop-color="#00FFA3"/>
<stop offset="1" stop-color="#DC1FFF"/>
</linearGradient>
<clipPath id="clip0_3374_9082">
<rect width="28.0699" height="22" fill="white" transform="translate(8.00003 11)"/>
</clipPath>
</defs>
</svg>
