<svg width="current" height="current" viewBox="0 0 44 44" fill="none" xmlns="http://www.w3.org/2000/svg">
<g clip-path="url(#clip0_3374_9196)">
<g clip-path="url(#clip1_3374_9196)">
<circle cx="22" cy="22" r="22" fill="#DEE2E9"/>
<mask id="mask0_3374_9196" style="mask-type:alpha" maskUnits="userSpaceOnUse" x="8" y="6" width="29" height="31">
<path d="M33.7349 19.8634C33.1355 19.7005 32.6415 19.2779 32.372 18.7268C32.365 18.7144 32.3593 18.7006 32.3523 18.6882C31.9776 17.9272 32.1179 17.031 32.6864 16.3957C33.6408 15.3268 34.2205 13.9251 34.2205 12.3907C34.2205 9.03487 31.4554 6.31427 28.0447 6.31427C25.3175 6.31427 23.0044 8.05435 22.1861 10.467C21.9166 11.2611 21.1713 11.7955 20.3236 11.8715C13.9288 12.33 8.88571 17.5806 8.88571 23.9899C8.88571 30.3992 14.4159 36.1428 21.2373 36.1428C26.1414 36.1428 30.3761 33.3297 32.3706 29.2543C32.6316 28.7213 33.1313 28.3456 33.7124 28.1909C35.5806 27.6952 36.9575 26.0186 36.9575 24.023C36.9575 22.0275 35.5918 20.3633 33.7349 19.862V19.8634Z" fill="black"/>
</mask>
<g mask="url(#mask0_3374_9196)">
<path d="M36.9575 6.31427H8.88571V36.1428H36.9575V6.31427Z" fill="#BEC3D1"/>
</g>
</g>
</g>
<defs>
<clipPath id="clip0_3374_9196">
<rect width="44" height="44" fill="white"/>
</clipPath>
<clipPath id="clip1_3374_9196">
<rect width="44" height="44" fill="white"/>
</clipPath>
</defs>
</svg>
