<svg width="12" height="12" viewBox="0 0 12 12" fill="none" xmlns="http://www.w3.org/2000/svg">
    <path d="M3.55448 10H8.44558H8.44564C9.36279 10 9.82124 10 10.0863 9.80902C10.3176 9.64244 10.4668 9.38636 10.4967 9.10451C10.5309 8.78137 10.3017 8.38762 9.84308 7.60003L7.39753 3.40005C6.93893 2.61246 6.70954 2.21861 6.41017 2.08645C6.14906 1.97118 5.85078 1.97118 5.58966 2.08645C5.29043 2.21855 5.06127 2.61211 4.60308 3.39901L4.60247 3.40005L2.15692 7.60003C1.69833 8.38762 1.4691 8.78137 1.50335 9.10451C1.53323 9.38636 1.68242 9.64244 1.91365 9.80902C2.17876 10 2.63728 10 3.55443 10H3.55448Z" fill="#fa5454" transform='rotate(60 8 5)'/>
</svg>
